<?xml version="1.0" encoding="UTF-8"?>
<svg version="1.1" xmlns="http://www.w3.org/2000/svg" width="240" height="240">
<path d="M0 0 C79.2 0 158.4 0 240 0 C240 79.2 240 158.4 240 240 C160.8 240 81.6 240 0 240 C0 160.8 0 81.6 0 0 Z " fill="#FDFDFD" transform="translate(0,0)"/>
<path d="M0 0 C12.32547905 0.58692757 19.32008431 6.66788581 28 15 C28.57492188 15.53496094 29.14984375 16.06992187 29.7421875 16.62109375 C30.87536584 17.69985392 31.94756979 18.84232677 33 20 C33 20.66 33 21.32 33 22 C44.99946979 18.19165764 56.13748332 13.69610616 67.08984375 7.453125 C69.8032689 6.09823352 72.01471563 5.41782986 75 5 C75.67902846 11.6139136 73.53010769 15.5183451 70.1875 21.125 C69.50977539 22.30255859 69.50977539 22.30255859 68.81835938 23.50390625 C66.58993184 27.3621764 64.30473683 31.18684737 62 35 C62.9075 35.020625 63.815 35.04125 64.75 35.0625 C79.56969561 37.40401191 91.94638258 52.22728704 100.35375977 63.64282227 C102.29924671 66.38937009 104.15502877 69.1847368 106 72 C106.86818359 73.24330078 106.86818359 73.24330078 107.75390625 74.51171875 C111.0977805 79.44097208 111.0977805 79.44097208 110.61328125 82.2109375 C110.41089844 82.80132812 110.20851562 83.39171875 110 84 C106.47944083 83.40915596 103.56638778 82.4844458 100.35546875 80.93359375 C99.51435547 80.53076172 98.67324219 80.12792969 97.80664062 79.71289062 C96.94232422 79.29201172 96.07800781 78.87113281 95.1875 78.4375 C94.30384766 78.01275391 93.42019531 77.58800781 92.50976562 77.15039062 C90.33735663 76.10528576 88.16760043 75.05503238 86 74 C85.67 74.33 85.34 74.66 85 75 C85.56267578 75.82177734 85.56267578 75.82177734 86.13671875 76.66015625 C93.47368274 88.02598208 96.22241412 100.01823994 98.375 113.1875 C98.64497803 114.83697632 98.64497803 114.83697632 98.92041016 116.51977539 C100.23434419 125.17308457 100.23434419 125.17308457 99 129 C98.01 128.67 97.02 128.34 96 128 C95.7421875 127.29359375 95.484375 126.5871875 95.21875 125.859375 C93.48642642 121.79507737 90.64609581 119.28690377 87.5 116.25 C86.90574219 115.66089844 86.31148437 115.07179688 85.69921875 114.46484375 C82.63003563 111.35203495 82.63003563 111.35203495 79 109 C79.309375 109.96679688 79.61875 110.93359375 79.9375 111.9296875 C81.39837998 117.04019547 81.74315992 122.22841466 82.2109375 127.50390625 C82.62207509 131.70743364 83.26352294 135.10368991 85 139 C85.125 141.8125 85.125 141.8125 85 144 C83.234375 143.9296875 83.234375 143.9296875 81 143 C79.55237687 140.69910308 78.38707304 138.56995105 77.25 136.125 C76.77626953 135.16787109 76.77626953 135.16787109 76.29296875 134.19140625 C74.8919811 131.28632797 74 129.26257196 74 126 C73.34 126 72.68 126 72 126 C72.061875 126.94875 72.12375 127.8975 72.1875 128.875 C72.1875 135.46046727 70.0199311 142.75661161 66 148 C65.34 148 64.68 148 64 148 C63.90074219 148.721875 63.80148438 149.44375 63.69921875 150.1875 C61.88593296 157.4811635 56.02640553 163.75412337 50 168 C49.01 168.33 48.02 168.66 47 169 C48.32 169.33 49.64 169.66 51 170 C51 176.6 51 183.2 51 190 C53.5575 190.721875 56.115 191.44375 58.75 192.1875 C79.55911614 198.25607572 79.55911614 198.25607572 84 205 C85.046875 207.8671875 85.046875 207.8671875 85.75 210.875 C85.99234375 211.86242187 86.2346875 212.84984375 86.484375 213.8671875 C87 217 87 217 87 224 C37.5 224 -12 224 -63 224 C-62.33542675 218.68341396 -61.71857576 214.2816776 -60.25 209.25 C-59.94578125 208.16203125 -59.6415625 207.0740625 -59.328125 205.953125 C-56.45694006 199.56896084 -50.44217751 197.67275634 -44.3125 195.25 C-43.15524414 194.77626953 -43.15524414 194.77626953 -41.97460938 194.29296875 C-36.29181886 192 -36.29181886 192 -34 192 C-34.44472656 191.19175781 -34.88945313 190.38351563 -35.34765625 189.55078125 C-35.91355469 188.48214844 -36.47945312 187.41351563 -37.0625 186.3125 C-37.63097656 185.25675781 -38.19945312 184.20101562 -38.78515625 183.11328125 C-40 180 -40 180 -39 175 C-34.71 174.67 -30.42 174.34 -26 174 C-28.37340677 171.54747967 -30.75822344 169.20798417 -33.34765625 166.98046875 C-40.28430238 161.00637382 -48.22386705 153.56380018 -49.21679688 143.88720703 C-49.39418258 140.54621551 -49.48019796 137.20570266 -49.56640625 133.86132812 C-49.59605469 133.03955078 -49.62570313 132.21777344 -49.65625 131.37109375 C-49.68428711 130.2562561 -49.68428711 130.2562561 -49.71289062 129.11889648 C-50.03715492 126.72579288 -50.86428206 125.11580954 -52 123 C-53.14398932 118.03551807 -53.11826508 113.18675318 -53.0625 108.125 C-53.05798828 107.34125 -53.05347656 106.5575 -53.04882812 105.75 C-53.03714093 103.83329986 -53.01920908 101.91663952 -53 100 C-54.01320313 100.34933594 -55.02640625 100.69867188 -56.0703125 101.05859375 C-57.42179229 101.51847229 -58.77335947 101.97809409 -60.125 102.4375 C-60.79015625 102.66759766 -61.4553125 102.89769531 -62.140625 103.13476562 C-66.07865153 104.46674519 -69.86205422 105.43925034 -74 106 C-73.52196828 91.82635953 -71.29538116 79.09701403 -62 68 C-66.455 68.495 -66.455 68.495 -71 69 C-72.7263238 63.32483974 -70.53349063 60.14011516 -67.87109375 55.12890625 C-65.01106889 50.34627596 -61.70396852 46.1529344 -58 42 C-57.360625 41.278125 -56.72125 40.55625 -56.0625 39.8125 C-51.91483866 35.39724761 -47.58808488 32.26471596 -42.296875 29.32421875 C-39.63155766 27.84890342 -39.63155766 27.84890342 -36 25 C-40.95 24.01 -40.95 24.01 -46 23 C-45.67 21.35 -45.34 19.7 -45 18 C-34.60329133 15.02571808 -24.70950085 13.59448141 -13.875 13.5625 C-12.29440796 13.54799805 -12.29440796 13.54799805 -10.68188477 13.53320312 C-4.43363767 13.60089703 0.29809491 14.42252012 6 17 C5.38241446 15.0393158 4.75568655 13.08150937 4.125 11.125 C3.77695313 10.03445312 3.42890625 8.94390625 3.0703125 7.8203125 C2.18824769 4.91477277 2.18824769 4.91477277 0 3 C0 2.01 0 1.02 0 0 Z " fill="#120C0C" transform="translate(108,16)"/>
<path d="M0 0 C7.91177059 1.53246007 15.57868726 8.26847591 21 14 C21 14.66 21 15.32 21 16 C21.66 16 22.32 16 23 16 C23.99 18.475 23.99 18.475 25 21 C30.12508484 19.57971505 35.1659233 18.0011787 40.1875 16.25 C40.92564941 15.9926709 41.66379883 15.7353418 42.42431641 15.47021484 C48.1090622 13.43475284 53.36912883 10.9861278 58.6796875 8.1015625 C61 7 61 7 64 7 C62.60244576 10.68446118 60.95204714 14.10554226 59.0625 17.5625 C58.55847656 18.49191406 58.05445313 19.42132813 57.53515625 20.37890625 C56.14799235 22.74732095 54.79392917 24.92256159 53 27 C52.34 27 51.68 27 51 27 C50.67 28.98 50.34 30.96 50 33 C51.093125 32.87625 52.18625 32.7525 53.3125 32.625 C63.42900021 32.67843222 73.11129181 41.30910944 80 48 C81.0288207 49.64903176 82.03356828 51.31364668 83 53 C84.66270287 54.33827304 86.32916181 55.67189785 88 57 C88.6837045 58.32467746 89.34964186 59.65863633 90 61 C91.2065625 62.175625 91.2065625 62.175625 92.4375 63.375 C95.08734968 66.08948016 96.47643477 68.55193133 98 72 C94.76774662 71.32226945 92.08399605 70.1400163 89.125 68.6875 C82.60495379 65.65245819 75.94194025 63.81402526 69 62 C69 63.65 69 65.3 69 67 C69.99 67 70.98 67 72 67 C72 67.66 72 68.32 72 69 C72.88171875 69.30744141 72.88171875 69.30744141 73.78125 69.62109375 C80.2152918 73.6197148 83.06469435 84.47988099 84.81347656 91.55664062 C85.60294788 95.02660654 86.31753781 98.50760875 87 102 C87.22558594 103.08925781 87.45117188 104.17851563 87.68359375 105.30078125 C88.14098461 107.53095601 88.58212256 109.76215637 89 112 C85.66034485 110.56977241 83.72987793 108.81097548 81.3125 106.125 C77.33819856 102.00849191 73.35711339 99.88491027 68 98 C68.2165625 98.97839844 68.2165625 98.97839844 68.4375 99.9765625 C69.44627294 104.72620177 70.25715306 109.11409188 70 114 C68.35 113.67 66.7 113.34 65 113 C64.97421875 113.73605469 64.9484375 114.47210938 64.921875 115.23046875 C64.86515625 116.20628906 64.8084375 117.18210937 64.75 118.1875 C64.70359375 119.15042969 64.6571875 120.11335938 64.609375 121.10546875 C63.87101116 124.61269699 62.39186025 126.38330489 60 129 C59.82726562 128.17242187 59.65453125 127.34484375 59.4765625 126.4921875 C57.48843909 118.04722294 54.61995924 110.29169184 51.0625 102.375 C50.64371582 101.42737793 50.22493164 100.47975586 49.79345703 99.50341797 C49.37821777 98.60252441 48.96297852 97.70163086 48.53515625 96.7734375 C48.167854 95.97341309 47.80055176 95.17338867 47.42211914 94.34912109 C45.71330004 91.31546238 45.71330004 91.31546238 41 87 C41.495 97.395 41.495 97.395 42 108 C37.77394759 106.9434869 36.71081947 106.11871746 33.75 103.125 C32.69039062 102.07699219 32.69039062 102.07699219 31.609375 101.0078125 C30 99 30 99 30 96 C29.34 96 28.68 96 28 96 C29.37074284 91.06532577 31.79539106 89.68379294 36 87 C36.495 85.515 36.495 85.515 37 84 C32.67979616 85.2706366 32.67979616 85.2706366 28.9375 87.6875 C27 89 27 89 24.578125 89.0625 C22 88 22 88 20.26953125 84.61328125 C19.76305407 83.18690327 19.27812007 81.75273304 18.8125 80.3125 C18.56564453 79.60416016 18.31878906 78.89582031 18.06445312 78.16601562 C16.95974049 74.97560554 15.93119551 71.77363579 14.94921875 68.54296875 C14.27430484 65.8531686 14.27430484 65.8531686 12 65 C11.81824219 65.97839844 11.81824219 65.97839844 11.6328125 66.9765625 C11.46523437 67.85054688 11.29765625 68.72453125 11.125 69.625 C10.96257812 70.48351562 10.80015625 71.34203125 10.6328125 72.2265625 C10 75 10 75 8.98632812 77.68554688 C7.87082626 81.43407493 7.6507376 84.92905385 7.5859375 88.8046875 C7.56657135 89.5286673 7.5472052 90.25264709 7.5272522 90.99856567 C7.46790114 93.29059398 7.42125122 95.58267374 7.375 97.875 C7.33677913 99.43752081 7.29772506 101.00002148 7.2578125 102.5625 C7.16223692 106.37483465 7.07804394 110.1872678 7 114 C2.99310199 110.90381749 -0.02859222 107.68844053 -2.9375 103.5625 C-3.58609985 102.64911865 -3.58609985 102.64911865 -4.24780273 101.71728516 C-10.33962703 92.89307339 -15.1807932 83.63297455 -15.0625 72.75 C-15.05347656 71.67234375 -15.04445312 70.5946875 -15.03515625 69.484375 C-15.02355469 68.66453125 -15.01195312 67.8446875 -15 67 C-15.99 66.67 -16.98 66.34 -18 66 C-18.0825 67.19625 -18.165 68.3925 -18.25 69.625 C-18.7818976 73.95616619 -20.47105645 76.42972676 -23 80 C-24.13949597 82.63328901 -25.06349063 85.28412283 -26 88 C-27.27310312 87.06558465 -28.543388 86.12732889 -29.8125 85.1875 C-30.52019531 84.66542969 -31.22789063 84.14335938 -31.95703125 83.60546875 C-34 82 -34 82 -35.57421875 80.30078125 C-37.0477082 78.66300932 -37.0477082 78.66300932 -40 79 C-39.67979782 82.0836862 -39.02100482 82.98086934 -36.6796875 85.11328125 C-35.29136719 86.20189453 -35.29136719 86.20189453 -33.875 87.3125 C-29.04997904 91.55851844 -29.04997904 91.55851844 -28.625 95.3125 C-29.07875 96.529375 -29.5325 97.74625 -30 99 C-30.68899863 101.14535261 -31.37639425 103.29122047 -32.0625 105.4375 C-32.70248782 107.29369242 -33.3463739 109.14856606 -34 111 C-34.66 111 -35.32 111 -36 111 C-36.33 109.68 -36.66 108.36 -37 107 C-37.66 107 -38.32 107 -39 107 C-40.80996216 101.34244531 -42.35729017 95.9129304 -43 90 C-46.00545673 91.04231797 -46.88672098 91.78814946 -48.4140625 94.64453125 C-48.81367187 95.68996094 -49.21328125 96.73539062 -49.625 97.8125 C-50.02976562 98.85019531 -50.43453125 99.88789062 -50.8515625 100.95703125 C-51.23054688 101.96121094 -51.60953125 102.96539062 -52 104 C-52.66355243 105.66790899 -53.32909058 107.33503671 -54 109 C-54.33 109 -54.66 109 -55 109 C-55 102.73 -55 96.46 -55 90 C-57.743125 90.804375 -60.48625 91.60875 -63.3125 92.4375 C-64.17270752 92.68943115 -65.03291504 92.9413623 -65.91918945 93.20092773 C-66.94338989 93.50172241 -66.94338989 93.50172241 -67.98828125 93.80859375 C-69.03302612 94.11494751 -69.03302612 94.11494751 -70.09887695 94.42749023 C-71.74173766 94.92222612 -73.37230856 95.45743619 -75 96 C-75.66035579 82.35264706 -70.38984617 71.10435155 -61.5625 60.75 C-60.716875 59.8425 -59.87125 58.935 -59 58 C-63.29 58 -67.58 58 -72 58 C-68.89179258 45.56717031 -59.19147728 37.00664063 -49 30 C-48.67 29.34 -48.34 28.68 -48 28 C-50.51712354 29.46832207 -52.87213336 30.89469806 -55.125 32.75 C-55.74375 33.1625 -56.3625 33.575 -57 34 C-58.485 33.505 -58.485 33.505 -60 33 C-54.50643024 27.67522708 -48.98525059 24.10614627 -42 21 C-42 20.67 -42 20.34 -42 20 C-45.3 19.34 -48.6 18.68 -52 18 C-51.67 16.35 -51.34 14.7 -51 13 C-40.45474703 9.98322265 -30.49114802 8.61233648 -19.5 8.625 C-17.8439978 8.62306641 -17.8439978 8.62306641 -16.15454102 8.62109375 C-8.27044055 8.72955945 -8.27044055 8.72955945 -6 11 C-6.66 11 -7.32 11 -8 11 C-5.68118495 13.67901932 -3.68185532 14.66204403 -0.3125 15.6875 C0.49574219 15.93886719 1.30398437 16.19023438 2.13671875 16.44921875 C2.75160156 16.63097656 3.36648437 16.81273438 4 17 C3.52129086 14.91656149 3.04201531 12.83325311 2.5625 10.75 C2.29566406 9.58984375 2.02882813 8.4296875 1.75390625 7.234375 C1.19032 4.81650239 0.61330049 2.40556696 0 0 Z " fill="#473633" transform="translate(114,21)"/>
<path d="M0 0 C2.0345041 2.0345041 2.67053275 3.29354423 3.7265625 5.9140625 C4.0359375 6.67460938 4.3453125 7.43515625 4.6640625 8.21875 C4.98117188 9.0128125 5.29828125 9.806875 5.625 10.625 C6.11226562 11.82769531 6.11226562 11.82769531 6.609375 13.0546875 C7.41078053 15.03463057 8.20598362 17.0170821 9 19 C7.87811441 20.14888283 6.75238316 21.29401137 5.625 22.4375 C4.99851562 23.07558594 4.37203125 23.71367188 3.7265625 24.37109375 C2 26 2 26 0 27 C0 27.99 0 28.98 0 30 C4.43458973 28.6062718 6.87378374 26.39417765 10 23 C13.36081523 24.12027174 13.97429735 24.93402422 16.125 27.625 C19.40466932 31.52004437 22.96842484 34.47625965 27.08203125 37.45703125 C29 39 29 39 31 42 C31.66 42 32.32 42 33 42 C32.50886719 40.98873047 32.50886719 40.98873047 32.0078125 39.95703125 C30.79039135 36.38498546 30.804619 33.45288353 30.875 29.6875 C30.89304687 28.43324219 30.91109375 27.17898437 30.9296875 25.88671875 C30.95289063 24.93410156 30.97609375 23.98148438 31 23 C40.45553102 34.79192677 44.24668806 51.18222197 43 66 C40.66797672 75.21570647 34.18907331 81.99899625 26.24316406 86.81347656 C22.48348409 88.80216231 18.56436403 90.03656226 14.5 91.25 C13.69691406 91.50523437 12.89382812 91.76046875 12.06640625 92.0234375 C-2.94491308 96.64604799 -24.60841118 98.04382298 -39.10546875 91.625 C-48.84968829 86.28976193 -60.03852452 78.40948223 -63.53979492 67.28491211 C-64.61762324 61.93350881 -64.22850738 56.31263371 -64.25 50.875 C-64.270625 49.59367187 -64.29125 48.31234375 -64.3125 46.9921875 C-64.34339251 39.45441559 -63.73086065 33.0459174 -61 26 C-60.4121875 24.453125 -60.4121875 24.453125 -59.8125 22.875 C-59.544375 22.25625 -59.27625 21.6375 -59 21 C-58.34 21 -57.68 21 -57 21 C-56.814375 22.19625 -56.62875 23.3925 -56.4375 24.625 C-55.28720037 29.96750271 -52.92556802 34.50826558 -50.38842773 39.30126953 C-48 43.82664538 -48 43.82664538 -48 46 C-47.34 46 -46.68 46 -46 46 C-45.88785156 45.01902344 -45.77570313 44.03804687 -45.66015625 43.02734375 C-45.04422965 38.71585752 -43.78672896 34.69333264 -42.4375 30.5625 C-42.20353516 29.83095703 -41.96957031 29.09941406 -41.72851562 28.34570312 C-41.15732778 26.56219821 -40.57936877 24.78086417 -40 23 C-35.51417721 23 -34.78564041 23.82131269 -31.59375 26.6875 C-29.28326793 28.59024994 -26.71367233 29.77238633 -24 31 C-26.18218939 26.91836336 -28.70507268 24.21766403 -32.1875 21.1875 C-33.08855469 20.39730469 -33.98960938 19.60710937 -34.91796875 18.79296875 C-35.60503906 18.20128906 -36.29210937 17.60960938 -37 17 C-35.25192871 11.53262809 -33.34205919 6.24175152 -31 1 C-30.67 1 -30.34 1 -30 1 C-29.91363281 1.58265625 -29.82726562 2.1653125 -29.73828125 2.765625 C-26.81221321 19.83882933 -17.66515345 35.80195923 -3.5390625 45.93359375 C-3.03117187 46.28550781 -2.52328125 46.63742188 -2 47 C-2.0721875 46.27039063 -2.144375 45.54078125 -2.21875 44.7890625 C-5.14883721 11.8255814 -5.14883721 11.8255814 0 0 Z " fill="#F7CEB0" transform="translate(127,95)"/>
<path d="M0 0 C1.22009766 0.01353516 1.22009766 0.01353516 2.46484375 0.02734375 C4.43502841 0.05052239 6.40505765 0.08637368 8.375 0.125 C8.24222656 0.74246094 8.10945313 1.35992187 7.97265625 1.99609375 C7.79605469 2.84300781 7.61945313 3.68992188 7.4375 4.5625 C7.26347656 5.38621094 7.08945313 6.20992187 6.91015625 7.05859375 C6.3257532 9.95281811 6.3257532 9.95281811 6.3293457 12.23486328 C6.15683535 16.78778363 5.59328066 19.44205812 2.34765625 22.75 C1.0643165 23.89781429 -0.24024315 25.02224193 -1.5625 26.125 C-2.24256104 26.7238501 -2.92262207 27.3227002 -3.62329102 27.93969727 C-4.98428907 29.13586244 -6.35323211 30.32305629 -7.73046875 31.50048828 C-10.2216954 33.63665093 -12.64040014 35.84854935 -15.0625 38.0625 C-15.85398438 38.75085938 -16.64546875 39.43921875 -17.4609375 40.1484375 C-19.64800128 42.06326493 -19.64800128 42.06326493 -21.4140625 44.2265625 C-25.1828479 48.39380979 -28.45508493 49.60371038 -33.94311523 50.05712891 C-43.07892938 50.32591463 -43.07892938 50.32591463 -46.7421875 47.48046875 C-48.125 45.3125 -48.125 45.3125 -49.3125 42.83203125 C-50.86501558 39.62996786 -52.83688234 37.22090307 -55.125 34.5 C-55.89328125 33.57058594 -56.6615625 32.64117187 -57.453125 31.68359375 C-59.22157249 29.60026082 -61.03321567 27.5799184 -62.875 25.5625 C-67.91432643 19.72528021 -70.84722732 12.55932211 -72.625 5.125 C-68.51132994 1.01132994 -58.12680487 2.00740372 -52.59222412 1.98706055 C-48.22768212 2.0093163 -43.86407903 2.0581907 -39.5 2.125 C-25.52455659 2.56050208 -25.52455659 2.56050208 -11.75927734 0.57910156 C-7.86863747 -0.24869415 -3.95891611 -0.08563379 0 0 Z " fill="#787784" transform="translate(147.625,190.875)"/>
<path d="M0 0 C0.28875 0.639375 0.5775 1.27875 0.875 1.9375 C1.82823451 4.15206079 1.82823451 4.15206079 4 5 C4.625 8.0625 4.625 8.0625 5 11 C6.63195312 11.45439453 6.63195312 11.45439453 8.296875 11.91796875 C33.40509318 19.02217652 33.40509318 19.02217652 38 26 C39.046875 28.8671875 39.046875 28.8671875 39.75 31.875 C40.11351562 33.35613281 40.11351562 33.35613281 40.484375 34.8671875 C41 38 41 38 41 45 C16.25 45 -8.5 45 -34 45 C-31.525 42.525 -31.525 42.525 -29 40 C-28.20980469 39.19820312 -27.41960937 38.39640625 -26.60546875 37.5703125 C-22.80745505 33.72934873 -19.01002424 29.92624114 -14.9375 26.375 C-14.30457031 25.81554687 -13.67164063 25.25609375 -13.01953125 24.6796875 C-11 23 -11 23 -8.57421875 21.3203125 C-3.76669055 17.74725327 -1.60686146 15.16896941 -0.66943359 9.08789062 C-0.332648 6.0561113 -0.12304558 3.04835498 0 0 Z " fill="#0E0C12" transform="translate(154,195)"/>
<path d="M0 0 C12.32547905 0.58692757 19.32008431 6.66788581 28 15 C28.57492188 15.53496094 29.14984375 16.06992187 29.7421875 16.62109375 C30.87536584 17.69985392 31.94756979 18.84232677 33 20 C33 20.66 33 21.32 33 22 C44.99946979 18.19165764 56.13748332 13.69610616 67.08984375 7.453125 C69.8032689 6.09823352 72.01471563 5.41782986 75 5 C75.67902846 11.6139136 73.53010769 15.5183451 70.1875 21.125 C69.50977539 22.30255859 69.50977539 22.30255859 68.81835938 23.50390625 C66.58993184 27.3621764 64.30473683 31.18684737 62 35 C62.9075 35.020625 63.815 35.04125 64.75 35.0625 C79.56969561 37.40401191 91.94638258 52.22728704 100.35375977 63.64282227 C102.29924671 66.38937009 104.15502877 69.1847368 106 72 C106.57878906 72.82886719 107.15757812 73.65773438 107.75390625 74.51171875 C111.0977805 79.44097208 111.0977805 79.44097208 110.61328125 82.2109375 C110.41089844 82.80132812 110.20851563 83.39171875 110 84 C106.47944083 83.40915596 103.56638778 82.4844458 100.35546875 80.93359375 C99.51435547 80.53076172 98.67324219 80.12792969 97.80664062 79.71289062 C96.94232422 79.29201172 96.07800781 78.87113281 95.1875 78.4375 C93.86202148 77.80038086 93.86202148 77.80038086 92.50976562 77.15039062 C90.33735663 76.10528576 88.16760043 75.05503238 86 74 C85.67 74.33 85.34 74.66 85 75 C85.37511719 75.54785156 85.75023437 76.09570312 86.13671875 76.66015625 C93.47368274 88.02598208 96.22241412 100.01823994 98.375 113.1875 C98.55498535 114.28715088 98.7349707 115.38680176 98.92041016 116.51977539 C100.23434419 125.17308457 100.23434419 125.17308457 99 129 C98.01 128.67 97.02 128.34 96 128 C95.7421875 127.29359375 95.484375 126.5871875 95.21875 125.859375 C93.48642642 121.79507737 90.64609581 119.28690377 87.5 116.25 C86.60861328 115.36634766 86.60861328 115.36634766 85.69921875 114.46484375 C82.63003563 111.35203495 82.63003563 111.35203495 79 109 C79.309375 109.96679688 79.61875 110.93359375 79.9375 111.9296875 C81.39837998 117.04019547 81.74315992 122.22841466 82.2109375 127.50390625 C82.62207509 131.70743364 83.26352294 135.10368991 85 139 C85.125 141.8125 85.125 141.8125 85 144 C83.234375 143.9296875 83.234375 143.9296875 81 143 C79.55237687 140.69910308 78.38707304 138.56995105 77.25 136.125 C76.93417969 135.48691406 76.61835938 134.84882813 76.29296875 134.19140625 C74.8919811 131.28632797 74 129.26257196 74 126 C73.34 126 72.68 126 72 126 C72.020625 127.051875 72.04125 128.10375 72.0625 129.1875 C72.01103198 132.32704904 71.73482813 134.96883396 71 138 C70.34 137.01 69.68 136.02 69 135 C68.01 135.99 67.02 136.98 66 138 C65.505 134.535 65.505 134.535 65 131 C65.99 131 66.98 131 68 131 C68.99 126.71 69.98 122.42 71 118 C72.65 118.33 74.3 118.66 76 119 C75.7834375 118.14728516 75.7834375 118.14728516 75.5625 117.27734375 C74.38454495 112.37737795 73.78572473 108.0354688 74 103 C79.09296307 103.43738693 81.41575171 104.78133803 85.0625 108.3125 C88.2710622 111.37913527 91.49683041 114.27114953 95 117 C94.74605469 116.05640625 94.49210937 115.1128125 94.23046875 114.140625 C94.06579102 113.52574219 93.90111328 112.91085938 93.73144531 112.27734375 C93.36446672 110.90957434 92.99527456 109.54239717 92.62402344 108.17578125 C91.78902273 105.07805841 91.00038999 102.00187756 90.34765625 98.859375 C88.51730387 90.10239499 84.70216736 82.55741123 80 75 C79.34 74.67 78.68 74.34 78 74 C78 73.34 78 72.68 78 72 C77.01 72 76.02 72 75 72 C75 70.35 75 68.7 75 67 C83.86035438 68.54329943 91.40147003 71.01034362 99.3359375 75.23046875 C100.99698577 76.13991121 100.99698577 76.13991121 103 76 C100.40592783 71.52416237 98.28719413 68.00103589 94 65 C92.9935725 63.33720673 91.99414593 61.67016516 91 60 C89.37660195 58.29115995 87.70680947 56.62553283 86 55 C85.2575 54.21625 84.515 53.4325 83.75 52.625 C75.50436581 44.75416736 67.56652569 38.82618041 56 38 C56.50177936 32.48042705 56.50177936 32.48042705 58.75 30.3125 C61.81454532 27.16282842 63.66538455 23.59329753 65.75 19.75 C66.36681641 18.63238281 66.36681641 18.63238281 66.99609375 17.4921875 C68.00349544 15.66480769 69.00258786 13.83285137 70 12 C68.94683594 12.51949219 67.89367187 13.03898437 66.80859375 13.57421875 C58.27470621 17.72075669 49.84712588 21.28056499 40.78125 24.08984375 C38.12086547 24.72842953 38.12086547 24.72842953 37 26 C35.00041636 26.04080783 32.99954746 26.04254356 31 26 C30.34 24.35 29.68 22.7 29 21 C28.34 21 27.68 21 27 21 C26.34 20.154375 25.68 19.30875 25 18.4375 C20.15732708 12.37338139 13.02237551 8.14158905 6 5 C6.474375 5.94875 6.94875 6.8975 7.4375 7.875 C9.42757782 12.4465467 9.71226902 17.06888627 10 22 C5.43545749 21.45660208 2.0271824 20.20536179 -2 18 C-2 17.34 -2 16.68 -2 16 C3.75 15.875 3.75 15.875 6 17 C5.38241446 15.0393158 4.75568655 13.08150937 4.125 11.125 C3.60292969 9.48917969 3.60292969 9.48917969 3.0703125 7.8203125 C2.18824769 4.91477277 2.18824769 4.91477277 0 3 C0 2.01 0 1.02 0 0 Z " fill="#161210" transform="translate(108,16)"/>
<path d="M0 0 C-1 3 -1 3 -3.3125 5.25 C-8.41079683 10.46686187 -10.49528732 15.76192732 -11.875 22.8125 C-12.81573324 27.32801954 -13.77662635 31.67985629 -15.55078125 35.94921875 C-21.74321361 51.06267017 -21.02005007 66.90552508 -21 83 C-25.00689801 79.90381749 -28.02859222 76.68844053 -30.9375 72.5625 C-31.58609985 71.64911865 -31.58609985 71.64911865 -32.24780273 70.71728516 C-39.9739574 59.52569104 -44.45803939 48.67652124 -42.375 35 C-41.16667678 29.54171234 -38.70435359 26.09809182 -35 22 C-34.39542969 21.28070313 -33.79085937 20.56140625 -33.16796875 19.8203125 C-26.6258575 12.59021632 -18.56416012 8.38936642 -10 4 C-9.27184082 3.62053223 -8.54368164 3.24106445 -7.79345703 2.85009766 C-7.07915527 2.48319824 -6.36485352 2.11629883 -5.62890625 1.73828125 C-4.98123291 1.40481689 -4.33355957 1.07135254 -3.66625977 0.7277832 C-2 0 -2 0 0 0 Z " fill="#AD9D92" transform="translate(142,52)"/>
<path d="M0 0 C0.66 0 1.32 0 2 0 C2.40992187 0.89203125 2.81984375 1.7840625 3.2421875 2.703125 C3.78101563 3.87359375 4.31984375 5.0440625 4.875 6.25 C5.40867188 7.41015625 5.94234375 8.5703125 6.4921875 9.765625 C6.98976562 10.83296875 7.48734375 11.9003125 8 13 C8.29132813 13.69609375 8.58265625 14.3921875 8.8828125 15.109375 C10.49960938 17.8454928 12.72803828 19.78739287 15 22 C16.7110338 23.95885688 18.3981942 25.93878963 20.0625 27.9375 C20.89910156 28.93652344 21.73570313 29.93554688 22.59765625 30.96484375 C29 39.05365854 29 39.05365854 29 42 C9.86 42 -9.28 42 -29 42 C-28.33542675 36.68341396 -27.71857576 32.2816776 -26.25 27.25 C-25.94578125 26.16203125 -25.6415625 25.0740625 -25.328125 23.953125 C-22.45694006 17.56896084 -16.44217751 15.67275634 -10.3125 13.25 C-9.15524414 12.77626953 -9.15524414 12.77626953 -7.97460938 12.29296875 C-2.29181886 10 -2.29181886 10 0 10 C-0.350625 9.2575 -0.70125 8.515 -1.0625 7.75 C-2.04877778 4.85691852 -2.09422236 3.78529329 -1 1 C-0.67 0.67 -0.34 0.34 0 0 Z " fill="#0D0A0E" transform="translate(74,198)"/>
<path d="M0 0 C0.91136719 0.34546875 1.82273438 0.6909375 2.76171875 1.046875 C3.49777344 1.21703125 4.23382813 1.3871875 4.9921875 1.5625 C7.39497453 2.46414464 8.89716748 3.25641186 10.76171875 5.046875 C13.09349225 10.95764967 13.76171875 16.72709319 13.76171875 23.046875 C0.89171875 23.046875 -11.97828125 23.046875 -25.23828125 23.046875 C-20.67461722 17.7226003 -16.10458419 12.57782729 -11.23828125 7.546875 C-10.5525 6.80695313 -9.86671875 6.06703125 -9.16015625 5.3046875 C-4.05061694 0.05863378 -4.05061694 0.05863378 0 0 Z " fill="#7A7686" transform="translate(176.23828125,216.953125)"/>
<path d="M0 0 C3.45286389 0.98653254 6.37289208 2.24576873 9.5 4 C5.22129599 9.37894219 0.42809799 13.95792211 -4.65307617 18.55957031 C-5.19037354 19.04651367 -5.7276709 19.53345703 -6.28125 20.03515625 C-7.09215088 20.75735352 -7.09215088 20.75735352 -7.91943359 21.49414062 C-9.53302696 22.97412549 -9.53302696 22.97412549 -10.91259766 24.69335938 C-12.99543816 27.14104014 -14.44938068 28.77016216 -17.65722656 29.47192383 C-20.09151709 29.58921785 -22.44299406 29.5262731 -24.875 29.375 C-26.12216797 29.33439453 -26.12216797 29.33439453 -27.39453125 29.29296875 C-29.43081888 29.22275194 -31.46575833 29.11514575 -33.5 29 C-26.77772094 20.86250429 -19.37096317 13.35167934 -11.30078125 6.54296875 C-9.49770077 5.03675664 -9.49770077 5.03675664 -7.91796875 3.42578125 C-5.16093784 0.77059317 -3.8876369 0 0 0 Z " fill="#59595C" transform="translate(160.5,211)"/>
<path d="M0 0 C0.33 0 0.66 0 1 0 C1.0093457 0.76554199 1.01869141 1.53108398 1.02832031 2.31982422 C1.08249977 5.83883322 1.1660543 9.35658016 1.25 12.875 C1.26417969 14.07898438 1.27835938 15.28296875 1.29296875 16.5234375 C1.55231068 26.06722053 2.92185938 33.86890349 9.4375 41.125 C17.5321253 48.54130474 26.1174371 53.55406507 37 55 C39.36132334 55.59457782 41.66975758 56.29079579 44 57 C44 57.66 44 58.32 44 59 C54.89 59.495 54.89 59.495 66 60 C66 60.33 66 60.66 66 61 C64.85112305 60.98952637 63.70224609 60.97905273 62.51855469 60.96826172 C58.20218091 60.93169968 53.88582043 60.90896955 49.56933594 60.89013672 C47.7112395 60.88016079 45.85315842 60.86657522 43.99511719 60.84912109 C26.249255 59.5259017 26.249255 59.5259017 10.75 65.625 C10.1725 66.40875 9.595 67.1925 9 68 C7.4375 65.8125 7.4375 65.8125 6 63 C6.33 61.35 6.66 59.7 7 58 C13.435 57.505 13.435 57.505 20 57 C17.62659323 54.54747967 15.24177656 52.20798417 12.65234375 49.98046875 C5.84649645 44.11902258 -0.36497418 37.81162303 -3 29 C-3.23360911 25.7243301 -3.18862837 22.46925535 -3.125 19.1875 C-3.11597656 18.30384766 -3.10695312 17.42019531 -3.09765625 16.50976562 C-3.07419637 14.33972641 -3.03832865 12.16982753 -3 10 C-2.67 10 -2.34 10 -2 10 C-1.67 15.94 -1.34 21.88 -1 28 C-0.67 18.76 -0.34 9.52 0 0 Z " fill="#130F11" transform="translate(62,133)"/>
<path d="M0 0 C1.95077578 2.31412639 3.70078328 4.59575778 5.4375 7.0625 C5.91509766 7.71927734 6.39269531 8.37605469 6.88476562 9.05273438 C9.91597735 13.27314577 12.39078888 17.43388053 15 22 C6.09 22 -2.82 22 -12 22 C-10.80968858 7.71626298 -10.80968858 7.71626298 -8 3 C-5.04955261 0.71340327 -3.74268873 0 0 0 Z " fill="#787481" transform="translate(63,218)"/>
<path d="M0 0 C2.16796875 1.9140625 2.16796875 1.9140625 4.1875 4.625 C4.94289063 5.61628906 5.69828125 6.60757813 6.4765625 7.62890625 C6.8777832 8.16918457 7.27900391 8.70946289 7.69238281 9.26611328 C9.10069518 11.13352075 10.55522412 12.95670344 12.0234375 14.77734375 C13.03661988 16.03893278 14.04964303 17.30064971 15.0625 18.5625 C15.55194092 19.16980957 16.04138184 19.77711914 16.5456543 20.40283203 C20 24.77252681 20 24.77252681 20 27 C14.84637063 27.59694549 10.13857069 27.85554279 5 27 C1.63346245 24.21448924 0.02562794 20.81793747 -2 17 C-3.25855992 15.32871395 -4.54929008 13.68103741 -5.875 12.0625 C-7.88707129 9.5767348 -8.97732757 8.06801728 -10 5 C-10.66 5 -11.32 5 -12 5 C-12 4.34 -12 3.68 -12 3 C-7.77823643 0.58756367 -4.87084522 -0.61119441 0 0 Z " fill="#5B565A" transform="translate(78,213)"/>
<path d="M0 0 C0 0.66 0 1.32 0 2 C-0.63502441 2.01981934 -1.27004883 2.03963867 -1.92431641 2.06005859 C-4.82493326 2.15581122 -7.72487905 2.26528546 -10.625 2.375 C-12.12353516 2.42140625 -12.12353516 2.42140625 -13.65234375 2.46875 C-18.83366901 2.67463047 -23.10763227 3.14842698 -28 5 C-29.32 5 -30.64 5 -32 5 C-32 5.66 -32 6.32 -32 7 C-29.03 7.99 -26.06 8.98 -23 10 C-23 10.66 -23 11.32 -23 12 C-22.34 12 -21.68 12 -21 12 C-21 12.99 -21 13.98 -21 15 C-22.24716797 15.19916016 -22.24716797 15.19916016 -23.51953125 15.40234375 C-24.60621094 15.57894531 -25.69289063 15.75554688 -26.8125 15.9375 C-27.89144531 16.11152344 -28.97039062 16.28554688 -30.08203125 16.46484375 C-33.04933356 16.93871921 -33.04933356 16.93871921 -36 18 C-35.60401298 15.12909413 -35.2676157 14.21084873 -32.9375 12.375 C-31.9784375 11.694375 -31.9784375 11.694375 -31 11 C-31 10.34 -31 9.68 -31 9 C-32.5778125 9.0309375 -32.5778125 9.0309375 -34.1875 9.0625 C-37.32704904 9.01103198 -39.96883396 8.73482813 -43 8 C-42.67 6.35 -42.34 4.7 -42 3 C-29.16497359 -0.51043457 -13.04041446 -4.34680482 0 0 Z " fill="#191919" transform="translate(105,31)"/>
<path d="M0 0 C0.99 0.33 1.98 0.66 3 1 C6.85976856 10.17767191 7.07224526 21.17671447 8 31 C6.68 31 5.36 31 4 31 C3.8040625 30.31421875 3.608125 29.6284375 3.40625 28.921875 C1.47870663 24.91686823 -1.32799429 22.31191441 -4.5 19.25 C-5.09425781 18.66089844 -5.68851563 18.07179687 -6.30078125 17.46484375 C-9.36996437 14.35203495 -9.36996437 14.35203495 -13 12 C-13 13.98 -13 15.96 -13 18 C-13.66 18.33 -14.32 18.66 -15 19 C-17.28571429 10.57142857 -17.28571429 10.57142857 -17 6 C-10.89920342 7.37267923 -7.4461251 10.88909861 -3 15 C-1.01728338 16.68866966 0.9909853 18.34256287 3 20 C2.7834375 19.39414063 2.566875 18.78828125 2.34375 18.1640625 C0.27480194 11.93806139 -0.37576109 6.54102645 0 0 Z " fill="#151411" transform="translate(200,113)"/>
<path d="M0 0 C0.99 0 1.98 0 3 0 C1.56970039 3.47035852 -0.08086883 5.03963742 -3.125 7.1875 C-11.43518024 13.46689665 -16.85687315 20.45885691 -21 30 C-19.02 30 -17.04 30 -15 30 C-16.98 30.99 -16.98 30.99 -19 32 C-19 32.99 -19 33.98 -19 35 C-22.465 35.495 -22.465 35.495 -26 36 C-27.72376494 30.33325179 -25.5374023 27.15752538 -22.890625 22.1484375 C-17.62428539 13.37845873 -12.36242253 7.0124668 -3 3 C-1.98198643 2.01834406 -0.9753197 1.02408568 0 0 Z " fill="#090504" transform="translate(63,49)"/>
<path d="M0 0 C0.33 0 0.66 0 1 0 C1.08636719 0.58265625 1.17273438 1.1653125 1.26171875 1.765625 C2.33825978 8.04709375 4.2922864 13.51796169 6.87890625 19.3359375 C8.72335861 23.71892185 8.72335861 23.71892185 9 26 C8.34 26.99 7.68 27.98 7 29 C6.34 28.154375 5.68 27.30875 5 26.4375 C1.73974683 22.50076779 -2.09372332 19.27623206 -6 16 C-4.25192871 10.53262809 -2.34205919 5.24175152 0 0 Z " fill="#D6B8A0" transform="translate(96,96)"/>
<path d="M0 0 C0.99 0.33 1.98 0.66 3 1 C2.34 1 1.68 1 1 1 C1 1.99 1 2.98 1 4 C2.27875 4.0825 3.5575 4.165 4.875 4.25 C7.0546875 4.390625 7.0546875 4.390625 9 5 C10.0390625 6.625 10.0390625 6.625 11 9 C11.5465625 10.04671875 12.093125 11.0934375 12.65625 12.171875 C15.83987692 18.31998163 18.76222834 24.12349077 20 31 C19.01 30.67 18.02 30.34 17 30 C17 31.65 17 33.3 17 35 C16.67 35 16.34 35 16 35 C15.87625 34.30777344 15.7525 33.61554688 15.625 32.90234375 C14.23934549 26.32914516 12.09585745 20.69898083 8.9375 14.8125 C8.40866211 13.82334595 8.40866211 13.82334595 7.86914062 12.81420898 C6.06218872 9.30379712 6.06218872 9.30379712 3 7 C3 6.34 3 5.68 3 5 C2.01 5 1.02 5 0 5 C0 3.35 0 1.7 0 0 Z " fill="#1B1915" transform="translate(183,83)"/>
<path d="M0 0 C0.33 1.32 0.66 2.64 1 4 C0.38253906 4.54527344 -0.23492187 5.09054688 -0.87109375 5.65234375 C-1.71800781 6.40644531 -2.56492188 7.16054687 -3.4375 7.9375 C-4.35015625 8.74960938 -5.2628125 9.56171875 -6.203125 10.3984375 C-8.83901036 12.85025265 -11.25068569 15.41561549 -13.6875 18.0625 C-17.36458009 21.83117995 -17.36458009 21.83117995 -20.1171875 22.5625 C-22.0625 22.5625 -22.0625 22.5625 -25 22 C-24.27554688 21.27683594 -23.55109375 20.55367187 -22.8046875 19.80859375 C-21.05459247 18.05606126 -19.30900256 16.29900421 -17.5703125 14.53515625 C-4.7674784 1.58915947 -4.7674784 1.58915947 0 0 Z " fill="#0A0815" transform="translate(145,218)"/>
<path d="M0 0 C3.53571429 0.53571429 3.53571429 0.53571429 5 2 C5.12586907 4.2890608 5.17577971 6.58251118 5.1875 8.875 C5.20167969 10.13054687 5.21585937 11.38609375 5.23046875 12.6796875 C5 16 5 16 3 19 C-0.875 18.125 -0.875 18.125 -2 17 C-2.12653198 14.50761431 -2.18519825 12.05529559 -2.1875 9.5625 C-2.19974609 8.86833984 -2.21199219 8.17417969 -2.22460938 7.45898438 C-2.22989842 5.63779099 -2.12169207 3.8171308 -2 2 C-1.34 1.34 -0.68 0.68 0 0 Z " fill="#1D1716" transform="translate(95,128)"/>
<path d="M0 0 C0.33 0.66 0.66 1.32 1 2 C3.02463255 2.65213292 3.02463255 2.65213292 5 3 C4.34 3 3.68 3 3 3 C2.90074219 3.721875 2.80148438 4.44375 2.69921875 5.1875 C0.89714882 12.43604945 -4.95354914 18.83466718 -11 23 C-14.09368603 24.23747441 -14.73151642 24.08949453 -18 23 C-18 22.34 -18 21.68 -18 21 C-16.2421875 19.73828125 -16.2421875 19.73828125 -13.875 18.3125 C-6.40326434 13.46057102 -2.67236021 8.46247399 0 0 Z " fill="#130D09" transform="translate(169,161)"/>
<path d="M0 0 C0.66 0.33 1.32 0.66 2 1 C4.07767554 9.87500909 4.27114829 18.93159622 4 28 C1.11288406 26.65864082 -1.29413963 25.15056005 -3.75 23.125 C-4.36359375 22.63257813 -4.9771875 22.14015625 -5.609375 21.6328125 C-7 20 -7 20 -7 16 C-4.53199953 17.15173355 -2.95216435 18.04783565 -1 20 C-0.67 13.4 -0.34 6.8 0 0 Z " fill="#100D0A" transform="translate(121,114)"/>
<path d="M0 0 C3 1 3 1 4.5625 3.5 C7.21139192 9.94947599 8.29578898 16.04895899 8 23 C6.35 23 4.7 23 3 23 C1.14060121 15.21930149 -0.41467342 8.01701946 0 0 Z " fill="#171619" transform="translate(187,217)"/>
<path d="M0 0 C0.66 0.33 1.32 0.66 2 1 C0.35 2.32 -1.3 3.64 -3 5 C-2.67 5.66 -2.34 6.32 -2 7 C-2.06324866 9.29420154 -2.19897592 11.58668695 -2.375 13.875 C-2.46523438 15.10992187 -2.55546875 16.34484375 -2.6484375 17.6171875 C-2.91777012 20.20876587 -3.26306443 22.51440375 -4 25 C-5.98 25 -7.96 25 -10 25 C-9.38599346 17.17141657 -8.37495335 7.05543114 -2.359375 1.609375 C-1.58078125 1.07828125 -0.8021875 0.5471875 0 0 Z " fill="#141314" transform="translate(55,215)"/>
<path d="M0 0 C1.32 0.33 2.64 0.66 4 1 C4 6.28 4 11.56 4 17 C2.35 17.33 0.7 17.66 -1 18 C-2.98119355 16.01880645 -2.18500411 12.26554936 -2.1875 9.5625 C-2.19974609 8.86833984 -2.21199219 8.17417969 -2.22460938 7.45898438 C-2.22989842 5.63779099 -2.12169207 3.8171308 -2 2 C-1.34 1.34 -0.68 0.68 0 0 Z " fill="#0F0D07" transform="translate(131,130)"/>
<path d="M0 0 C9.45908571 0.63498492 16.65145563 3.67664666 25 8 C25 9.32 25 10.64 25 12 C19.7743272 10.35695871 14.83133402 8.22265596 9.859375 5.94726562 C8.26384932 5.24062656 6.63355418 4.61362997 5 4 C4.01 4.495 4.01 4.495 3 5 C3 4.34 3 3.68 3 3 C2.01 3 1.02 3 0 3 C0 2.01 0 1.02 0 0 Z " fill="#141411" transform="translate(184,84)"/>
<path d="M0 0 C0.33 0 0.66 0 1 0 C1.01458252 0.77077881 1.02916504 1.54155762 1.04418945 2.33569336 C1.11923166 5.87010173 1.21570647 9.40362307 1.3125 12.9375 C1.33505859 14.14986328 1.35761719 15.36222656 1.38085938 16.61132812 C1.56871008 22.91286549 1.9939728 28.36146637 4.3984375 34.2265625 C5.23991252 36.70727458 4.86266996 38.56883919 4 41 C-2.21388281 33.92902991 -3.45778446 28.17593768 -3.1875 19.0625 C-3.17396484 18.18787109 -3.16042969 17.31324219 -3.14648438 16.41210938 C-3.11144109 14.27446914 -3.05764541 12.13715016 -3 10 C-2.67 10 -2.34 10 -2 10 C-1.67 15.94 -1.34 21.88 -1 28 C-0.67 18.76 -0.34 9.52 0 0 Z " fill="#392E2A" transform="translate(62,133)"/>
<path d="M0 0 C0.33 0.66 0.66 1.32 1 2 C1.99 2.33 2.98 2.66 4 3 C3.52457764 4.05320435 3.52457764 4.05320435 3.03955078 5.12768555 C1.93624087 8.17616866 1.59891519 10.7293955 1.3671875 13.95703125 C1.28339844 15.06884766 1.19960937 16.18066406 1.11328125 17.32617188 C1.03464844 18.47666016 0.95601563 19.62714844 0.875 20.8125 C0.78863281 21.98232422 0.70226562 23.15214844 0.61328125 24.35742188 C0.40165877 27.23783897 0.197492 30.1185853 0 33 C-0.33 33 -0.66 33 -1 33 C-1.09087891 31.93458984 -1.09087891 31.93458984 -1.18359375 30.84765625 C-1.26738281 29.92855469 -1.35117188 29.00945312 -1.4375 28.0625 C-1.51871094 27.14597656 -1.59992188 26.22945312 -1.68359375 25.28515625 C-1.76044976 23.03840268 -1.76044976 23.03840268 -3 22 C-3.67282154 14.14610238 -2.73678945 7.36326686 0 0 Z " fill="#1D1B1A" transform="translate(124,92)"/>
<path d="M0 0 C1.38638672 -0.00193359 1.38638672 -0.00193359 2.80078125 -0.00390625 C3.76371094 -0.00003906 4.72664063 0.00382812 5.71875 0.0078125 C7.16314453 0.00201172 7.16314453 0.00201172 8.63671875 -0.00390625 C9.56097656 -0.00261719 10.48523438 -0.00132813 11.4375 0 C12.7049707 0.00169189 12.7049707 0.00169189 13.99804688 0.00341797 C16.21875 0.1328125 16.21875 0.1328125 19.21875 1.1328125 C19.21875 1.7928125 19.21875 2.4528125 19.21875 3.1328125 C18.57848877 3.15786865 17.93822754 3.1829248 17.27856445 3.20874023 C14.36261274 3.3251671 11.4469471 3.44768117 8.53125 3.5703125 C7.52384766 3.60962891 6.51644531 3.64894531 5.47851562 3.68945312 C4.50205078 3.73134766 3.52558594 3.77324219 2.51953125 3.81640625 C1.62403564 3.85306396 0.72854004 3.88972168 -0.1940918 3.92749023 C-2.78903088 4.13343001 -5.24179684 4.57049072 -7.78125 5.1328125 C-7.78125 3.8128125 -7.78125 2.4928125 -7.78125 1.1328125 C-4.88180169 0.16632973 -3.0154352 0.00402518 0 0 Z " fill="#080505" transform="translate(85.78125,29.8671875)"/>
<path d="M0 0 C2.22889496 -0.05428973 4.45817471 -0.09292338 6.6875 -0.125 C8.54955078 -0.15980469 8.54955078 -0.15980469 10.44921875 -0.1953125 C13.81237857 -0.01032021 15.9985587 0.54232105 19 2 C19 2.99 19 3.98 19 5 C12.4 4.67 5.8 4.34 -1 4 C-0.67 2.68 -0.34 1.36 0 0 Z " fill="#130F0B" transform="translate(102,160)"/>
<path d="M0 0 C3.51218843 1.75609422 5.99714957 3.53612272 9 6 C9.99 6.66 10.98 7.32 12 8 C12.1875 10.625 12.1875 10.625 12 13 C6.63556087 12.6257368 4.50353999 11.0040457 1 7 C0.67 6.67 0.34 6.34 0 6 C-0.99 6.99 -1.98 7.98 -3 9 C-2.01 6.03 -1.02 3.06 0 0 Z " fill="#ECC9AC" transform="translate(88,117)"/>
<path d="M0 0 C4.3177458 0.50797009 8.03302114 1.19682779 12 3 C12 3.66 12 4.32 12 5 C12.66 5 13.32 5 14 5 C14 5.99 14 6.98 14 8 C13.16855469 8.13277344 12.33710937 8.26554687 11.48046875 8.40234375 C10.39378906 8.57894531 9.30710937 8.75554688 8.1875 8.9375 C7.10855469 9.11152344 6.02960938 9.28554688 4.91796875 9.46484375 C1.95066644 9.93871921 1.95066644 9.93871921 -1 11 C-0.60401298 8.12909413 -0.2676157 7.21084873 2.0625 5.375 C2.701875 4.92125 3.34125 4.4675 4 4 C4 3.34 4 2.68 4 2 C2.68 1.67 1.36 1.34 0 1 C0 0.67 0 0.34 0 0 Z " fill="#080607" transform="translate(70,38)"/>
<path d="M0 0 C3 2 3 2 3.73046875 5.0390625 C3.88128906 6.22242188 4.03210938 7.40578125 4.1875 8.625 C4.34605469 9.81351563 4.50460938 11.00203125 4.66796875 12.2265625 C4.77753906 13.14179687 4.88710937 14.05703125 5 15 C0.44166456 14.342425 -2.94519187 13.22049017 -7 11 C-7 10.34 -7 9.68 -7 9 C-1.25 8.875 -1.25 8.875 1 10 C0.67 9.34 0.34 8.68 0 8 C-0.13415472 5.3276379 -0.04318541 2.67749512 0 0 Z " fill="#110B0C" transform="translate(113,23)"/>
<path d="M0 0 C0.66 0 1.32 0 2 0 C2 0.66 2 1.32 2 2 C2.66 2.33 3.32 2.66 4 3 C2.02 3.66 0.04 4.32 -2 5 C-2.33 6.65 -2.66 8.3 -3 10 C-3.99 10.33 -4.98 10.66 -6 11 C-6 10.34 -6 9.68 -6 9 C-8.51712354 10.46832207 -10.87213336 11.89469806 -13.125 13.75 C-14.053125 14.36875 -14.053125 14.36875 -15 15 C-15.99 14.67 -16.98 14.34 -18 14 C-12.50643024 8.67522708 -6.98525059 5.10614627 0 2 C0 1.34 0 0.68 0 0 Z " fill="#343233" transform="translate(72,40)"/>
<path d="M0 0 C0.36923077 6.52307692 0.36923077 6.52307692 -1.5 8.9375 C-1.995 9.288125 -2.49 9.63875 -3 10 C-3 9.34 -3 8.68 -3 8 C-3.928125 8.061875 -4.85625 8.12375 -5.8125 8.1875 C-9 8 -9 8 -10.69921875 6.48828125 C-11.12847656 5.99714844 -11.55773437 5.50601562 -12 5 C-10.75747321 4.15556432 -9.5056114 3.3248542 -8.25 2.5 C-7.55390625 2.0359375 -6.8578125 1.571875 -6.140625 1.09375 C-4 0 -4 0 0 0 Z " fill="#151515" transform="translate(183,21)"/>
<path d="M0 0 C0.66 0 1.32 0 2 0 C2 0.66 2 1.32 2 2 C2.66 2 3.32 2 4 2 C4 2.66 4 3.32 4 4 C5.98 4 7.96 4 10 4 C8.02 4.99 8.02 4.99 6 6 C6 6.99 6 7.98 6 9 C3.69 9.33 1.38 9.66 -1 10 C-2.15837626 5.94568308 -1.83691257 3.78187881 0 0 Z " fill="#262325" transform="translate(38,75)"/>
<path d="M0 0 C0.66 0.66 1.32 1.32 2 2 C1.69739281 6.08519712 -0.84739296 9.64446549 -3 13 C-3.99 13.33 -4.98 13.66 -6 14 C-7 11 -7 11 -5.8203125 8.5546875 C-4.98113281 7.22824219 -4.98113281 7.22824219 -4.125 5.875 C-3.57070313 4.98554687 -3.01640625 4.09609375 -2.4453125 3.1796875 C-1 1 -1 1 0 0 Z " fill="#0E0C10" transform="translate(46,63)"/>
<path d="M0 0 C0.99 0.33 1.98 0.66 3 1 C3.33 4.63 3.66 8.26 4 12 C3.01 11.67 2.02 11.34 1 11 C1 9.35 1 7.7 1 6 C0.34 6 -0.32 6 -1 6 C-1 6.66 -1 7.32 -1 8 C-2.32 8.33 -3.64 8.66 -5 9 C-3.90931332 5.22454612 -3.0916909 2.52956528 0 0 Z " fill="#0C0605" transform="translate(69,110)"/>
<path d="M0 0 C0.33 0.66 0.66 1.32 1 2 C1.99 2.33 2.98 2.66 4 3 C3.67 3.33 3.34 3.66 3 4 C2.76346477 6.52596259 2.57826308 9.03107207 2.4375 11.5625 C2.39431641 12.27341797 2.35113281 12.98433594 2.30664062 13.71679688 C2.20028223 15.47761912 2.09961154 17.2387832 2 19 C1.67 19 1.34 19 1 19 C0.67 15.7 0.34 12.4 0 9 C-0.33 10.98 -0.66 12.96 -1 15 C-1.66 14.67 -2.32 14.34 -3 14 C-2.88655624 11.8535247 -2.75893655 9.70779408 -2.625 7.5625 C-2.52058594 5.77005859 -2.52058594 5.77005859 -2.4140625 3.94140625 C-2.27742188 2.97074219 -2.14078125 2.00007812 -2 1 C-1.34 0.67 -0.68 0.34 0 0 Z " fill="#CDB49C" transform="translate(127,128)"/>
<path d="M0 0 C0.33 1.32 0.66 2.64 1 4 C-0.42915851 5.34227046 -1.86862672 6.67357096 -3.3125 8 C-4.51326172 9.11375 -4.51326172 9.11375 -5.73828125 10.25 C-8 12 -8 12 -11 12 C-9.65843569 9.09220751 -8.13892965 6.7482101 -6.0625 4.3125 C-5.55847656 3.71050781 -5.05445313 3.10851562 -4.53515625 2.48828125 C-3 1 -3 1 0 0 Z " fill="#04030E" transform="translate(145,218)"/>
<path d="M0 0 C2.9375 0.75 2.9375 0.75 6 2 C6.875 4.125 6.875 4.125 7 6 C6.01 6 5.02 6 4 6 C4 7.98 4 9.96 4 12 C3.01 12.495 3.01 12.495 2 13 C-0.28571429 4.57142857 -0.28571429 4.57142857 0 0 Z " fill="#0B0603" transform="translate(183,119)"/>
<path d="M0 0 C0.33 0.99 0.66 1.98 1 3 C1.99 3.33 2.98 3.66 4 4 C2.7391988 5.03319813 1.46596742 6.05124379 0.1875 7.0625 C-0.87404297 7.91521484 -0.87404297 7.91521484 -1.95703125 8.78515625 C-2.63121094 9.18605469 -3.30539063 9.58695313 -4 10 C-4.99 9.67 -5.98 9.34 -7 9 C-6.82374165 6.62051228 -6.30280227 5.29774151 -4.59765625 3.62109375 C-3.09350908 2.37884514 -1.54870149 1.18623944 0 0 Z " fill="#1F1817" transform="translate(133,116)"/>
<path d="M0 0 C4 2 4 2 4.875 4 C4.936875 4.99 4.936875 4.99 5 6 C4.34 6.66 3.68 7.32 3 8 C2.53993654 10.20250992 2.53993654 10.20250992 2.375 12.625 C2.30023438 13.44226563 2.22546875 14.25953125 2.1484375 15.1015625 C2.09945312 15.72804688 2.05046875 16.35453125 2 17 C1.34 16.67 0.68 16.34 0 16 C0 10.72 0 5.44 0 0 Z " fill="#060102" transform="translate(155,108)"/>
<path d="M0 0 C3.01343955 3.32851768 3.44667544 5.81882813 3.6875 10.25 C3.75324219 11.32765625 3.81898438 12.4053125 3.88671875 13.515625 C3.92410156 14.33546875 3.96148437 15.1553125 4 16 C3.01 16 2.02 16 1 16 C-0.50156874 12.99686252 -0.09281204 10.20932478 -0.0625 6.875 C-0.05347656 5.59367187 -0.04445312 4.31234375 -0.03515625 2.9921875 C-0.02355469 2.00476563 -0.01195312 1.01734375 0 0 Z " fill="#F0CFB5" transform="translate(158,118)"/>
<path d="M0 0 C2.46301423 2.46301423 2.76766521 4.27360036 3.625 7.625 C3.88539063 8.62789062 4.14578125 9.63078125 4.4140625 10.6640625 C4.60742188 11.43492188 4.80078125 12.20578125 5 13 C4.01 12.67 3.02 12.34 2 12 C2 13.65 2 15.3 2 17 C1.67 17 1.34 17 1 17 C-2.41573034 4.83146067 -2.41573034 4.83146067 0 0 Z " fill="#272522" transform="translate(198,101)"/>
<path d="M0 0 C-0.33 0.99 -0.66 1.98 -1 3 C-1.66 3 -2.32 3 -3 3 C-3.433125 3.9590625 -3.433125 3.9590625 -3.875 4.9375 C-5 7 -5 7 -7 8 C-7 6.68 -7 5.36 -7 4 C-8.98 4 -10.96 4 -13 4 C-11 1 -11 1 -9.3125 0.3125 C-6.19641489 -0.10859258 -3.13969957 -0.06037884 0 0 Z " fill="#0A0304" transform="translate(55,79)"/>
<path d="M0 0 C2.32601085 2.85464968 3.9610176 5.45014348 5 9 C4.625 11.8125 4.625 11.8125 4 14 C2.35 14 0.7 14 -1 14 C-0.9278125 13.32453125 -0.855625 12.6490625 -0.78125 11.953125 C-0.6884375 11.06109375 -0.595625 10.1690625 -0.5 9.25 C-0.4071875 8.36828125 -0.314375 7.4865625 -0.21875 6.578125 C0.05636313 3.76695165 0.05636313 3.76695165 0 0 Z " fill="#EFCDB2" transform="translate(161,124)"/>
<path d="M0 0 C3.25524265 3.02272532 5.61820737 6.25718301 8 10 C7.34 10 6.68 10 6 10 C5.67 10.99 5.34 11.98 5 13 C-1.03938731 5.9452954 -1.03938731 5.9452954 -0.875 2 C-0.58625 1.34 -0.2975 0.68 0 0 Z " fill="#1E1815" transform="translate(108,120)"/>
<path d="M0 0 C5.27315333 0.4452885 10.01770224 1.08373163 15 3 C14.67 3.66 14.34 4.32 14 5 C13.06027344 4.87431641 13.06027344 4.87431641 12.1015625 4.74609375 C10.87566406 4.59333984 10.87566406 4.59333984 9.625 4.4375 C8.40683594 4.28087891 8.40683594 4.28087891 7.1640625 4.12109375 C4.95100814 3.81762672 4.95100814 3.81762672 3 5 C3 4.34 3 3.68 3 3 C2.01 3 1.02 3 0 3 C0 2.01 0 1.02 0 0 Z " fill="#0C0604" transform="translate(184,84)"/>
<path d="M0 0 C-1.33488128 3.59391114 -2.96022723 6.75490696 -5 10 C-5.45375 9.34 -5.9075 8.68 -6.375 8 C-6.91125 7.34 -7.4475 6.68 -8 6 C-8.66 6 -9.32 6 -10 6 C-10 5.34 -10 4.68 -10 4 C-3.375 0 -3.375 0 0 0 Z " fill="#3F3C3C" transform="translate(178,28)"/>
<path d="M0 0 C11.385 0.99 11.385 0.99 23 2 C23 2.33 23 2.66 23 3 C15.08 3 7.16 3 -1 3 C-0.67 2.01 -0.34 1.02 0 0 Z " fill="#020007" transform="translate(106,190)"/>
<path d="M0 0 C-0.45196245 1.60597325 -0.91182327 3.20972508 -1.375 4.8125 C-1.63023438 5.70582031 -1.88546875 6.59914063 -2.1484375 7.51953125 C-3 10 -3 10 -5 13 C-5.66 12.34 -6.32 11.68 -7 11 C-6.70380418 5.66847523 -6.26580663 0 0 0 Z " fill="#191210" transform="translate(68,118)"/>
<path d="M0 0 C3.78520613 0.54074373 5.59177555 2.07572746 8 5 C8 5.99 8 6.98 8 8 C4.51460083 7.35455571 1.97180943 5.89865603 -1 4 C-0.67 2.68 -0.34 1.36 0 0 Z " fill="#1A1412" transform="translate(95,118)"/>
<path d="M0 0 C2.18994248 3.28491373 2.35277339 4.83095639 2.625 8.6875 C2.69976562 9.68136719 2.77453125 10.67523438 2.8515625 11.69921875 C2.92503906 12.83810547 2.92503906 12.83810547 3 14 C2.01 14 1.02 14 0 14 C-0.19627391 12.41773035 -0.38165538 10.83410729 -0.5625 9.25 C-0.66691406 8.36828125 -0.77132812 7.4865625 -0.87890625 6.578125 C-0.99456676 4.11567549 -0.73638695 2.33461936 0 0 Z " fill="#68656F" transform="translate(187,226)"/>
<path d="M0 0 C0.33 0.66 0.66 1.32 1 2 C3.02463255 2.65213292 3.02463255 2.65213292 5 3 C4.34 3 3.68 3 3 3 C2.87625 3.78375 2.7525 4.5675 2.625 5.375 C2 8 2 8 0 10 C-1.32 9.67 -2.64 9.34 -4 9 C-2.68 6.03 -1.36 3.06 0 0 Z " fill="#241E17" transform="translate(169,161)"/>
<path d="M0 0 C3 3.625 3 3.625 3 7 C2.34 7 1.68 7 1 7 C0.67 7.66 0.34 8.32 0 9 C-0.33 8.34 -0.66 7.68 -1 7 C-1.66 8.32 -2.32 9.64 -3 11 C-3.36923077 3.49230769 -3.36923077 3.49230769 -1.5 1 C-1.005 0.67 -0.51 0.34 0 0 Z " fill="#201918" transform="translate(160,113)"/>
<path d="M0 0 C1.83309517 2.74964276 3.09707861 4.83977514 4 8 C3.125 10.8125 3.125 10.8125 2 13 C1.34 13 0.68 13 0 13 C-0.19551338 11.39679026 -0.38111983 9.79237014 -0.5625 8.1875 C-0.71912109 6.84751953 -0.71912109 6.84751953 -0.87890625 5.48046875 C-1 3 -1 3 0 0 Z " fill="#F4CBAE" transform="translate(94,100)"/>
<path d="M0 0 C3.39417765 3.12621626 5.6062718 5.56541027 7 10 C3.85262818 9.30058404 0.97411124 8.23921302 -2 7 C-1.34 6.34 -0.68 5.68 0 5 C0.16687448 2.41645782 0.16687448 2.41645782 0 0 Z " fill="#362F2B" transform="translate(205,83)"/>
<path d="M0 0 C-1.38081223 4.1424367 -3.59825558 5.32203099 -7 8 C-9.475 7.01 -9.475 7.01 -12 6 C-8.59780735 3.25207517 -4.51535412 0 0 0 Z " fill="#A49490" transform="translate(142,52)"/>
<path d="M0 0 C1.32 0.66 2.64 1.32 4 2 C3.67 2.99 3.34 3.98 3 5 C3.33 5.66 3.66 6.32 4 7 C3.401875 6.773125 2.80375 6.54625 2.1875 6.3125 C1.1046875 6.1578125 1.1046875 6.1578125 0 6 C-0.99 6.99 -1.98 7.98 -3 9 C-2.01 6.03 -1.02 3.06 0 0 Z " fill="#CFB199" transform="translate(88,117)"/>
<path d="M0 0 C2.34914492 2.34914492 2.73140357 3.95679446 3.625 7.125 C3.88539063 8.03507812 4.14578125 8.94515625 4.4140625 9.8828125 C4.70410156 10.93082031 4.70410156 10.93082031 5 12 C3 12 3 12 0.875 10.375 C-1.49904726 7.36787347 -1.4069579 5.74401272 -1 2 C-0.67 1.34 -0.34 0.68 0 0 Z " fill="#D3BCA7" transform="translate(127,95)"/>
<path d="M0 0 C0.99 0.33 1.98 0.66 3 1 C2.34 1 1.68 1 1 1 C1 1.99 1 2.98 1 4 C3.64 4.33 6.28 4.66 9 5 C9 6.65 9 8.3 9 10 C8.01 10.495 8.01 10.495 7 11 C5.62437146 9.71034824 4.29233607 8.37310707 3 7 C3 6.34 3 5.68 3 5 C2.01 5 1.02 5 0 5 C0 3.35 0 1.7 0 0 Z " fill="#15100D" transform="translate(183,83)"/>
<path d="M0 0 C1.10844919 3.32534757 0.84454356 5.62182575 0 9 C-0.66 8.01 -1.32 7.02 -2 6 C-2.99 6.99 -3.98 7.98 -5 9 C-5.33 6.69 -5.66 4.38 -6 2 C-3 2 -3 2 -1 3 C-0.67 2.01 -0.34 1.02 0 0 Z " fill="#2A241F" transform="translate(179,145)"/>
<path d="M0 0 C1.258125 -0.020625 2.51625 -0.04125 3.8125 -0.0625 C4.52019531 -0.07410156 5.22789062 -0.08570313 5.95703125 -0.09765625 C8 0 8 0 11 1 C10.67 1.99 10.34 2.98 10 4 C6.62294375 3.46274105 3.303314 2.88935377 0 2 C0 1.34 0 0.68 0 0 Z " fill="#0E0605" transform="translate(166,51)"/>
<path d="M0 0 C0.66 0.33 1.32 0.66 2 1 C2 1.99 2 2.98 2 4 C3.65 4.33 5.3 4.66 7 5 C6.67 5.66 6.34 6.32 6 7 C3.4375 7.625 3.4375 7.625 1 8 C0.01 5.69 -0.98 3.38 -2 1 C-1.34 0.67 -0.68 0.34 0 0 Z " fill="#190E0B" transform="translate(134,105)"/>
<path d="M0 0 C0.66 0.33 1.32 0.66 2 1 C1.01 2.32 0.02 3.64 -1 5 C-0.34 5.33 0.32 5.66 1 6 C-0.32 6.99 -1.64 7.98 -3 9 C-3 8.01 -3 7.02 -3 6 C-3.66 5.67 -4.32 5.34 -5 5 C-3.35 3.35 -1.7 1.7 0 0 Z " fill="#0F0E1B" transform="translate(135,225)"/>
<path d="M0 0 C0.33 0.66 0.66 1.32 1 2 C1.99 2.33 2.98 2.66 4 3 C3.34 4.65 2.68 6.3 2 8 C1.34 8 0.68 8 0 8 C-0.66 8.66 -1.32 9.32 -2 10 C-1.46274105 6.62294375 -0.88935377 3.303314 0 0 Z " fill="#2B2A26" transform="translate(124,92)"/>
<path d="M0 0 C0.33 0 0.66 0 1 0 C1.3125 3.3125 1.3125 3.3125 1 7 C-1.5 8.9375 -1.5 8.9375 -4 10 C-3.52449439 8.51965236 -3.04448784 7.04074979 -2.5625 5.5625 C-2.29566406 4.73878906 -2.02882812 3.91507812 -1.75390625 3.06640625 C-1 1 -1 1 0 0 Z " fill="#363233" transform="translate(45,93)"/>
<path d="M0 0 C0.66 0.33 1.32 0.66 2 1 C0.50902342 4.7952131 -1.75700849 6.61042731 -5 9 C-5 4.61031544 -2.87194899 3.23094261 0 0 Z " fill="#070303" transform="translate(53,57)"/>
<path d="M0 0 C2.78388975 1.70625501 3.85384206 2.47626739 4.75 5.6875 C4.8325 6.450625 4.915 7.21375 5 8 C3.68 7.67 2.36 7.34 1 7 C0 2.25 0 2.25 0 0 Z " fill="#0D0707" transform="translate(66,169)"/>
<path d="M0 0 C3.16115776 1.36983503 3.9927092 1.9890638 6 5 C5.01 5.66 4.02 6.32 3 7 C1.5 5.75 1.5 5.75 0 4 C0 2.68 0 1.36 0 0 Z " fill="#1A1513" transform="translate(127,24)"/>
<path d="M0 0 C1.98 1.65 3.96 3.3 6 5 C4.02 5.99 4.02 5.99 2 7 C0.4375 5.1875 0.4375 5.1875 -1 3 C-0.67 2.01 -0.34 1.02 0 0 Z " fill="#0E0F0A" transform="translate(190,122)"/>
<path d="M0 0 C0 2.31 0 4.62 0 7 C-0.66 6.67 -1.32 6.34 -2 6 C-2.66 6.66 -3.32 7.32 -4 8 C-4 4 -4 4 -3 1 C-1 0 -1 0 0 0 Z " fill="#0B0203" transform="translate(98,91)"/>
<path d="M0 0 C0.66 0.66 1.32 1.32 2 2 C1.625 4.125 1.625 4.125 1 6 C-0.65 6.33 -2.3 6.66 -4 7 C-2.92598892 4.08482708 -2.22189824 2.22189824 0 0 Z " fill="#1D1A1A" transform="translate(46,63)"/>
<path d="M0 0 C-1.1858237 3.37503669 -2.27573689 5.64722731 -5 8 C-5.33 6.35 -5.66 4.7 -6 3 C-2.25 0 -2.25 0 0 0 Z " fill="#1A1313" transform="translate(176,39)"/>
<path d="M0 0 C0.66 0.33 1.32 0.66 2 1 C1.01 2.485 1.01 2.485 0 4 C0.66 4.33 1.32 4.66 2 5 C-1.01031744 5.93423645 -1.86650268 6.04449911 -5 5 C-5 4.34 -5 3.68 -5 3 C-2.625 1.3125 -2.625 1.3125 0 0 Z " fill="#231A14" transform="translate(156,179)"/>
<path d="M0 0 C0.33 0 0.66 0 1 0 C1.36923077 6.52307692 1.36923077 6.52307692 -0.5 8.9375 C-0.995 9.288125 -1.49 9.63875 -2 10 C-2.66 8.02 -3.32 6.04 -4 4 C-3.01 3.67 -2.02 3.34 -1 3 C-0.67 2.01 -0.34 1.02 0 0 Z " fill="#282828" transform="translate(182,21)"/>
<path d="M0 0 C-0.33 1.32 -0.66 2.64 -1 4 C-2.98 3.34 -4.96 2.68 -7 2 C-7 1.34 -7 0.68 -7 0 C-2.25 -1.125 -2.25 -1.125 0 0 Z " fill="#1C1A16" transform="translate(201,88)"/>
<path d="M0 0 C3 4 3 4 2.85546875 6.578125 C2.63503906 7.45984375 2.41460937 8.3415625 2.1875 9.25 C1.97480469 10.14203125 1.76210937 11.0340625 1.54296875 11.953125 C1.36378906 12.62859375 1.18460938 13.3040625 1 14 C0.67 14 0.34 14 0 14 C0 9.38 0 4.76 0 0 Z " fill="#BA997F" transform="translate(158,118)"/>
<path d="M0 0 C2.25 0.25 2.25 0.25 4 1 C1.6875 3.0625 1.6875 3.0625 -1 5 C-1.99 4.67 -2.98 4.34 -4 4 C-2.25 1.9375 -2.25 1.9375 0 0 Z " fill="#2A2828" transform="translate(58,50)"/>
<path d="M0 0 C0 3.99904969 -1.72586967 5.80200422 -4 9 C-4.66 8.67 -5.32 8.34 -6 8 C-4.55746343 4.63408134 -2.66735273 2.48952921 0 0 Z " fill="#262424" transform="translate(53,55)"/>
<path d="M0 0 C0.66 0 1.32 0 2 0 C2.33 1.32 2.66 2.64 3 4 C3.66 4 4.32 4 5 4 C5.33 2.68 5.66 1.36 6 0 C6 1.65 6 3.3 6 5 C4.35 4.67 2.7 4.34 1 4 C0.67 2.68 0.34 1.36 0 0 Z " fill="#CBB19E" transform="translate(76,137)"/>
<path d="M0 0 C2.15377564 2.62198774 3.40072174 4.64404172 4 8 C3.01 8 2.02 8 1 8 C0.67 5.36 0.34 2.72 0 0 Z " fill="#D9BCA4" transform="translate(161,124)"/>
<path d="M0 0 C3 3.625 3 3.625 3 7 C1.68 6.67 0.36 6.34 -1 6 C-0.67 4.02 -0.34 2.04 0 0 Z " fill="#E1BFA4" transform="translate(66,121)"/>
</svg>
